<svg xmlns="http://www.w3.org/2000/svg" viewBox="0 0 100 100">
  <path d="M46.2 65.2h8.9v8.9h-8.9v-8.9zM30 34.6h8.9v8.9H30v-8.9zm16.2 15.3h8.9v8.9h-8.9v-8.9zm-16.2 0h8.9v8.9H30v-8.9zm0 15.3h8.9v8.9H30v-8.9zm32.4-30.6h8.9v8.9h-8.9v-8.9zm0 30.6h8.9v8.9h-8.9v-8.9zm0-15.3h8.9v8.9h-8.9v-8.9zM46.2 34.6h8.9v8.9h-8.9v-8.9z"/>
  <path d="M72.3 17.3V11h-7.6v6.3H54.5V11h-7.6v6.3H36.6V11H29v6.3H12.4V88H89V17.3H72.3zm7.5 61.5H21.6V26.5h7.5v2.3h7.6v-2.3h10.2v2.3h7.6v-2.3h10.2v2.3h7.6v-2.3h7.5v52.3z"/>
</svg>
