<svg xmlns="http://www.w3.org/2000/svg" viewBox="0 0 504.711 504.711">
  <path d="M310.94 213.523V109.327c0-8.836-7.163-16-16-16H154.891V41.741c0-14.117-17.038-21.321-27.163-11.462L4.835 149.962c-6.454 6.285-6.439 16.654 0 22.925l122.893 119.685c10.112 9.847 27.163 2.669 27.163-11.462v-51.586H294.94c8.837-.001 16-7.165 16-16.001zM499.876 331.841L376.984 212.156c-10.112-9.847-27.163-2.669-27.163 11.462v51.586H209.772c-8.837 0-16 7.164-16 16V395.4c0 8.836 7.163 16 16 16h140.049v51.586c0 14.161 17.098 21.263 27.163 11.462l122.893-119.684c6.454-6.284 6.439-16.652-.001-22.923z"/>
</svg>
