<svg xmlns="http://www.w3.org/2000/svg" viewBox="0 0 100 100">
  <path d="M51.9 73.5c-5.4 0-10.9-.1-16.2 0-1.6 0-2.5-.5-3.3-1.9-4.9-9.9-9.9-19.7-14.7-29.7-.3-.6-.3-1.8 0-2.2 5.2-5.1 11.2-8.5 18.8-7.9 4.3.3 8 1.9 11.2 4.6 1.8 1.6 3.9 2.4 6.3 2.3 4.1-.2 8.3-.1 12.4 0 2.5 0 4.4 1 5.4 3.4 1 2.2.6 4.3-1 6-.8.9-2 1.7-3.2 1.8-4.1.3-8.3.1-12.4.5-1 .1-2.5 1-2.8 1.9-.3.8.2 2.3.8 3.2.3.6 1.5.9 2.3.9 4.3.1 8.5.1 12.8 0 2.4 0 4.2-1.1 5.7-2.9 4.5-5.6 9-11 13.5-16.5l1.4-1.7c2.4-2.7 5.3-3.1 7.9-1 2.5 1.9 2.9 5 1.1 7.8-5.2 7.7-10.8 15.3-16 23-4 5.9-9.3 9-16.5 8.5-4.6-.3-9-.1-13.5-.1zm-32 10.7C13.6 71.4 7.2 58.8.9 45.9 4.6 44 8.3 42.2 12 40.3c6.3 12.8 12.6 25.5 18.9 38.3-3.7 1.9-7.3 3.7-11 5.6z"/>
</svg>
