<svg xmlns="http://www.w3.org/2000/svg" viewBox="0 0 100 100">
  <circle cx="16.5" cy="29.3" r="2.5"/>
  <path d="M96.2 21.8H73.9V11.2c0-2-.8-3.9-2.2-5.3-1.4-1.4-3.3-2.2-5.3-2.2-4.2 0-7.5 3.3-7.5 7.5v2.1h4.2v-2.1c0-1.8 1.4-3.3 3.3-3.3.9 0 1.8.3 2.3 1 .7.6 1 1.4 1 2.3v10.6H47.6L56 41.5h-8.6L34.1 11.2 3.6 24.6l7.5 16.9H3.6v52.3h92.6V41.5h-8.5l8.5-19.7zM13.7 37.5L9 26.6l23-10.1.3.8L43 41.5H15.5l-1.8-4zm39 45.4c-.2.4-.4.9-.9 1.3-.3.3-.8.7-1.2.9-.4.2-1 .3-1.5.3s-1.1-.1-1.5-.3-.9-.4-1.3-.9c-.3-.3-.7-.8-.9-1.3-.2-.4-.3-1-.3-1.5s.1-1.1.3-1.5c.2-.4.4-.9.9-1.3s.8-.7 1.3-.9c.4-.2 1-.3 1.5-.3s1 .1 1.5.3c.4.2.9.4 1.2.9.3.3.7.8.9 1.3.2.4.3 1 .3 1.5s-.1 1.1-.3 1.5zm7-18.9c-.8 1.3-1.9 2.6-3.4 3.9-.8.6-1.4 1.1-2 1.7-.6.6-1 1-1.2 1.7-.3.6-.6 1.2-.7 2s-.2 1.8-.2 2.9h-7v-2.8c0-.8.1-1.4.2-2.1.1-.6.2-1.2.4-1.7.2-.4.4-1 .8-1.3.3-.4.7-.8 1.1-1.2.4-.3 1.7-1.3 1.7-1.3s1.3-1 1.8-1.4c.1-.1 1.3-1.3 1.8-2.4.1-.2.1-.3.1-.6V59.8c-.1-1.8-1.4-3.2-3.2-3.2-1.7 0-3.1 1.3-3.2 3v1.7h-6.5c0-1.7.2-4.2.8-5.4.6-1.2 1.3-2.2 2.2-3 1-.8 2.1-1.4 3.3-1.8 1.3-.4 2.6-.6 4.2-.6 1.4 0 2.8.2 4 .6 1.2.4 2.3 1 3.2 1.9.9.8 1.7 1.9 2.2 3 .6 1.2.8 2.5.8 4.1-.1 1-.4 2.6-1.2 3.9z"/>
</svg>
