<svg xmlns="http://www.w3.org/2000/svg" viewBox="0 0 100 100">
  <path d="M86.8 27.1L74.5 14.7l-8.7 6.7c-1.6-.8-3.2-1.5-4.9-2L59.5 8.5H42.1l-1.4 10.8c-1.7.5-3.3 1.2-4.9 2L27 14.7 14.7 27l6.7 8.7c-.8 1.6-1.5 3.2-2 4.9L8.5 42v17.4l10.8 1.4c.5 1.7 1.2 3.3 2 4.9l-6.7 8.7L27 86.8l8.7-6.7c1.6.8 3.2 1.5 4.9 2L42 93h17.4l1.4-10.8c1.7-.5 3.3-1.2 4.9-2l8.7 6.7 12.3-12.3-6.7-8.7c.8-1.6 1.5-3.2 2-4.9l11-1.5V42.1l-10.8-1.4c-.5-1.7-1.2-3.3-2-4.9l6.6-8.7zM67.2 67.2c-8.8 8.8-23.2 8.8-32 0s-8.8-23.2 0-32 23.2-8.8 32 0 8.8 23.1 0 32z"/>
</svg>
