<?xml version="1.0" encoding="utf-8"?>
<!-- Generator: Adobe Illustrator 25.0.1, SVG Export Plug-In . SVG Version: 6.00 Build 0)  -->
<svg version="1.1" id="Layer_1" xmlns="http://www.w3.org/2000/svg" xmlns:xlink="http://www.w3.org/1999/xlink" x="0px" y="0px"
	 viewBox="0 0 864 409" style="enable-background:new 0 0 864 409;" xml:space="preserve">
<style type="text/css">
	.st0{fill:#51BAAD;}
	.st1{fill:#2F193C;}
</style>
<path class="st0" d="M548,51.7c42.3,0,76.6,34.3,76.7,76.7h40.6C665.2,63.6,612.8,11.1,548,11.1l0,0V51.7z"/>
<path class="st1" d="M94.9,264.2c-19.4,0-35.9-3.5-49.4-10.4c-13.3-6.7-25.1-16-34.8-27.3l28.8-27.9c7.2,8.6,16.1,15.6,26.1,20.6
	c9.9,4.8,20.9,7.2,31.9,7.1c13.2,0,23.1-2.8,29.8-8.5c6.7-5.7,10-13.3,10-23c0-7.5-2.2-13.6-6.5-18.3c-4.3-4.7-12.4-8.1-24.3-10.3
	l-21.4-3.2c-45.1-7.1-67.7-29.1-67.7-65.8c-0.1-9.5,1.8-18.9,5.7-27.6c3.8-8.2,9.4-15.4,16.4-21.1c7.6-6.1,16.4-10.7,25.8-13.5
	c10.1-3.1,21.4-4.7,34.2-4.7c17.1,0,32,2.8,44.7,8.4c12.7,5.6,24,14.2,32.7,25l-29.2,27.6c-5.6-6.9-12.6-12.5-20.4-16.7
	c-8-4.3-18-6.4-30.1-6.4c-12.3,0-21.5,2.3-27.7,6.9s-9.2,11.1-9.2,19.4c0,8.6,2.5,14.9,7.4,18.9s13,7.1,24,9l21.1,3.9
	c22.9,4.1,39.8,11.4,50.7,21.9c10.9,10.5,16.4,25.1,16.4,43.9c0.1,10.1-1.8,20.1-5.7,29.4c-3.7,8.7-9.4,16.5-16.5,22.7
	c-7.8,6.7-16.8,11.7-26.6,14.8C120.5,262.4,108.5,264.2,94.9,264.2z"/>
<path class="st1" d="M219.6,260.3V34.2h101.7c9.6-0.1,19.1,1.6,28,5c8,3.2,15.3,8,21.2,14.3c6,6.4,10.5,13.9,13.3,22.2
	c3.1,9.2,4.7,18.8,4.5,28.5c0.1,9.7-1.4,19.4-4.5,28.7c-2.8,8.2-7.3,15.7-13.3,22c-6,6.2-13.2,11.1-21.2,14.2
	c-8.9,3.5-18.4,5.1-28,5h-59v86.2L219.6,260.3z M262.3,137.2h55.1c8.2,0,14.7-2.2,19.4-6.6c4.8-4.4,7.1-10.8,7.1-19V96.6
	c0-8.2-2.4-14.5-7.1-18.8c-4.7-4.3-11.2-6.5-19.4-6.5h-55.1V137.2z"/>
<path class="st1" d="M785,72.1v188.2h-42.8V72.1h-64.1V34.2h171v37.9H785z"/>
<path class="st1" d="M605.8,147.2L605.8,147.2c0,42.3-34.4,78.4-76.7,78.4s-76.7-36.2-76.7-78.4s34.4-78.4,76.7-78.4V30
	c-64.8,0-117.3,52.5-117.3,117.3s52.5,117.3,117.3,117.3S646.4,212,646.4,147.2c0,0,0,0,0,0L605.8,147.2L605.8,147.2z"/>
<path class="st1" d="M95.3,321.7h-0.6l-7.2,14.4L67,373.2l-20.4-37.2l-7.2-14.3h-0.6v71.9h-10v-85.4h13.7l24.4,46h0.6l24.6-46h13.2
	v85.3h-10L95.3,321.7z"/>
<path class="st1" d="M139.7,393.6v-85.3h52.1v9h-41.8v28.6h39.4v9h-39.4v29.6h41.8v9L139.7,393.6z"/>
<path class="st1" d="M263.5,317.3v76.3h-10.3v-76.3h-27.1v-9h64.6v9H263.5z"/>
<path class="st1" d="M335.3,393.6H325v-85.3h34c7.5,0,13.3,2.1,17.5,6.2c4.2,4.2,6.3,10.2,6.3,18c0,6.3-1.4,11.4-4.3,15.5
	c-2.9,4-7.2,6.7-12.8,8l19.6,37.6h-11.6l-18.5-36.7h-19.9V393.6z M359,348.1c4.1,0,7.2-1.1,9.5-3.2s3.4-5.1,3.4-9v-6.4
	c0-3.9-1.1-6.9-3.4-9c-2.2-2.1-5.4-3.2-9.5-3.2h-23.7v30.8L359,348.1z"/>
<path class="st1" d="M419.6,393.6v-8.5h12v-68.2h-12v-8.6h34.3v8.6h-12v68.2h12v8.5L419.6,393.6z"/>
<path class="st1" d="M522.6,395.1c-10.8,0-19.3-3.7-25.3-11.1c-6-7.4-9-18.2-9-32.6c0-14.3,3-25.4,9-33.1c6-7.7,14.5-11.6,25.3-11.6
	c7.2,0,13.2,1.6,18,4.8c5,3.4,9,8.2,11.3,13.8l-8.3,5c-1.6-4.2-4.3-7.9-7.8-10.6c-3.5-2.7-7.9-4-13.2-4c-3.4-0.1-6.8,0.7-9.8,2.1
	c-2.9,1.4-5.4,3.4-7.3,5.9c-2.1,2.8-3.6,5.9-4.6,9.2c-1.1,3.9-1.6,7.9-1.6,12v12.8c0,8.8,2,15.7,6.1,20.7c4.1,5,9.8,7.5,17.2,7.5
	c4.9,0.2,9.7-1.3,13.7-4.2c3.7-2.9,6.5-6.8,8.1-11.2l8.2,5.1c-2.5,5.7-6.5,10.6-11.6,14.1C535.9,393.3,529.7,395.1,522.6,395.1z"/>
<path class="st1" d="M617.1,395.1c-6.9,0-12.8-1.3-17.7-4c-4.9-2.7-9.1-6.4-12.4-10.9l7.6-6.4c2.7,3.7,6.1,6.8,10,9.1
	c4,2.2,8.5,3.2,13,3.1c6.1,0,10.8-1.5,14-4.4s4.8-6.9,4.8-11.7c0-4.1-1.2-7.2-3.7-9.4s-6.5-4-12.1-5.2l-7-1.6
	c-7.8-1.8-13.8-4.5-17.9-8.1s-6.2-8.7-6.2-15.4c-0.1-3.4,0.6-6.9,2.1-10c1.3-2.9,3.3-5.4,5.8-7.3c2.7-2,5.7-3.6,8.9-4.5
	c3.7-1.1,7.6-1.6,11.4-1.5c5.7-0.2,11.4,1.1,16.6,3.5c4.7,2.4,8.7,6,11.6,10.4l-7.7,5.6c-2.3-3.2-5.2-5.8-8.6-7.7
	c-3.8-2-8.1-3-12.5-2.8c-5.5,0-9.8,1.2-12.9,3.5s-4.7,5.8-4.7,10.5c0,4.1,1.3,7.1,4,9.2c2.6,2.1,6.7,3.7,12,5l7,1.6
	c8.4,1.9,14.5,4.7,18.2,8.6c3.8,3.8,5.6,8.9,5.6,15.3c0.1,3.6-0.6,7.3-2,10.6c-1.3,3.1-3.3,5.9-5.8,8.1c-2.7,2.3-5.8,4.1-9.2,5.1
	C625.4,394.5,621.2,395.1,617.1,395.1z"/>
</svg>
